<svg xmlns="http://www.w3.org/2000/svg" viewBox="0 0 1060 1060" width="1060" height="1060">
  <defs>
    <marker id="arrow" viewBox="0 0 10 8" refX="10" refY="4" markerWidth="8" markerHeight="6" orient="auto-start-reverse">
      <path d="M0,0 L10,4 L0,8 Z" fill="rgba(255,255,255,0.5)"/>
    </marker>
    <marker id="arrowPurple" viewBox="0 0 10 8" refX="10" refY="4" markerWidth="8" markerHeight="6" orient="auto-start-reverse">
      <path d="M0,0 L10,4 L0,8 Z" fill="rgba(139,124,248,0.7)"/>
    </marker>
    <marker id="arrowGreen" viewBox="0 0 10 8" refX="10" refY="4" markerWidth="8" markerHeight="6" orient="auto-start-reverse">
      <path d="M0,0 L10,4 L0,8 Z" fill="#4ade80"/>
    </marker>
    <marker id="arrowAmber" viewBox="0 0 10 8" refX="10" refY="4" markerWidth="8" markerHeight="6" orient="auto-start-reverse">
      <path d="M0,0 L10,4 L0,8 Z" fill="#f59e0b"/>
    </marker>
    <marker id="arrowCoral" viewBox="0 0 10 8" refX="10" refY="4" markerWidth="8" markerHeight="6" orient="auto-start-reverse">
      <path d="M0,0 L10,4 L0,8 Z" fill="#f87171"/>
    </marker>
    <marker id="arrowTeal" viewBox="0 0 10 8" refX="10" refY="4" markerWidth="8" markerHeight="6" orient="auto-start-reverse">
      <path d="M0,0 L10,4 L0,8 Z" fill="#2dd4bf"/>
    </marker>
  </defs>

  <!-- Background -->
  <rect width="1060" height="1060" fill="#0d0f12"/>

  <!-- ===== TOP: AGENTS & THEIR USE CASES (~150px) ===== -->

  <!-- Agent 1 -->
  <circle cx="150" cy="36" r="20" fill="rgba(96,165,250,0.15)" stroke="#60a5fa" stroke-width="1.5"/>
  <path d="M150,28 a4,4 0 1,1 0,0.01 M142,44 a8,6 0 0,1 16,0" fill="none" stroke="#60a5fa" stroke-width="1.5" stroke-linecap="round"/>
  <!-- Speech bubble 1 -->
  <rect x="60" y="62" width="180" height="26" rx="10" fill="rgba(96,165,250,0.1)" stroke="#60a5fa" stroke-width="0.8" stroke-opacity="0.5"/>
  <path d="M150,62 l-4,-6 l8,0 Z" fill="rgba(96,165,250,0.1)" stroke="#60a5fa" stroke-width="0.8" stroke-opacity="0.5"/>
  <text x="150" y="79" text-anchor="middle" fill="#93c5fd" font-size="10" font-family="system-ui,sans-serif">"Health of customer X?"</text>

  <!-- Agent 2 -->
  <circle cx="400" cy="36" r="20" fill="rgba(96,165,250,0.15)" stroke="#60a5fa" stroke-width="1.5"/>
  <path d="M400,28 a4,4 0 1,1 0,0.01 M392,44 a8,6 0 0,1 16,0" fill="none" stroke="#60a5fa" stroke-width="1.5" stroke-linecap="round"/>
  <!-- Speech bubble 2 -->
  <rect x="305" y="62" width="190" height="26" rx="10" fill="rgba(96,165,250,0.1)" stroke="#60a5fa" stroke-width="0.8" stroke-opacity="0.5"/>
  <path d="M400,62 l-4,-6 l8,0 Z" fill="rgba(96,165,250,0.1)" stroke="#60a5fa" stroke-width="0.8" stroke-opacity="0.5"/>
  <text x="400" y="79" text-anchor="middle" fill="#93c5fd" font-size="10" font-family="system-ui,sans-serif">"Top products in electronics?"</text>

  <!-- Agent 3 -->
  <circle cx="650" cy="36" r="20" fill="rgba(96,165,250,0.15)" stroke="#60a5fa" stroke-width="1.5"/>
  <path d="M650,28 a4,4 0 1,1 0,0.01 M642,44 a8,6 0 0,1 16,0" fill="none" stroke="#60a5fa" stroke-width="1.5" stroke-linecap="round"/>
  <!-- Speech bubble 3 (new question, not registered) -->
  <rect x="555" y="62" width="190" height="26" rx="10" fill="rgba(245,158,11,0.1)" stroke="#f59e0b" stroke-width="0.8" stroke-opacity="0.5"/>
  <path d="M650,62 l-4,-6 l8,0 Z" fill="rgba(245,158,11,0.1)" stroke="#f59e0b" stroke-width="0.8" stroke-opacity="0.5"/>
  <text x="650" y="79" text-anchor="middle" fill="#fcd34d" font-size="10" font-family="system-ui,sans-serif">"Revenue by region?" (new)</text>

  <!-- Agent 4 (smaller, right side) -->
  <circle cx="920" cy="36" r="16" fill="rgba(96,165,250,0.1)" stroke="#60a5fa" stroke-width="1" stroke-opacity="0.5"/>
  <path d="M920,30 a3,3 0 1,1 0,0.01 M914,42 a6,5 0 0,1 12,0" fill="none" stroke="#60a5fa" stroke-width="1" stroke-opacity="0.5" stroke-linecap="round"/>

  <!-- Label -->
  <text x="530" y="112" text-anchor="middle" fill="#60a5fa" font-size="12" font-weight="bold" font-family="system-ui,sans-serif" letter-spacing="1.5">AI AGENTS -- ask questions, not SQL</text>

  <!-- Arrow down into CogniMesh -->
  <line x1="530" y1="122" x2="530" y2="142" stroke="rgba(255,255,255,0.4)" stroke-width="1.5" marker-end="url(#arrow)"/>

  <!-- ===== MIDDLE: COGNIMESH SERVING LAYER (~350px) ===== -->

  <!-- Main band -->
  <rect x="24" y="148" width="1012" height="450" rx="12" fill="rgba(139,124,248,0.06)" stroke="#8b7cf8" stroke-width="2" stroke-opacity="0.4"/>

  <!-- Title bar -->
  <text x="530" y="174" text-anchor="middle" fill="#8b7cf8" font-size="16" font-weight="bold" font-family="system-ui,sans-serif" letter-spacing="1">CogniMesh -- Intelligent Serving Layer</text>

  <!-- ===== FIVE PILLARS ===== -->

  <!-- PILLAR 1: EXPLAINABILITY (teal) -->
  <rect x="38" y="192" width="190" height="200" rx="8" fill="#13151a"/>
  <rect x="38" y="192" width="190" height="4" rx="2" fill="#2dd4bf"/>
  <!-- Chain link icon -->
  <circle cx="73" cy="216" r="8" fill="none" stroke="#2dd4bf" stroke-width="1.5"/>
  <circle cx="87" cy="216" r="8" fill="none" stroke="#2dd4bf" stroke-width="1.5"/>
  <text x="104" y="220" fill="#2dd4bf" font-size="12" font-weight="bold" font-family="system-ui,sans-serif">EXPLAINABILITY</text>
  <line x1="52" y1="232" x2="214" y2="232" stroke="rgba(45,212,191,0.15)" stroke-width="1"/>
  <text x="52" y="250" fill="#b0aea6" font-size="10" font-family="system-ui,sans-serif">Every response traces back</text>
  <text x="52" y="264" fill="#b0aea6" font-size="10" font-family="system-ui,sans-serif">to source data</text>
  <circle cx="56" cy="284" r="2" fill="#2dd4bf" fill-opacity="0.6"/>
  <text x="64" y="288" fill="#8a887f" font-size="10" font-family="system-ui,sans-serif">Column-level lineage</text>
  <circle cx="56" cy="304" r="2" fill="#2dd4bf" fill-opacity="0.6"/>
  <text x="64" y="308" fill="#8a887f" font-size="10" font-family="system-ui,sans-serif">Dependency graph</text>
  <circle cx="56" cy="324" r="2" fill="#2dd4bf" fill-opacity="0.6"/>
  <text x="64" y="328" fill="#8a887f" font-size="10" font-family="system-ui,sans-serif">Impact analysis</text>
  <circle cx="56" cy="344" r="2" fill="#2dd4bf" fill-opacity="0.6"/>
  <text x="64" y="348" fill="#8a887f" font-size="10" font-family="system-ui,sans-serif">Provenance per column</text>
  <text x="52" y="378" fill="#5eead4" font-size="9" font-family="system-ui,sans-serif" font-style="italic">"Where did this number</text>
  <text x="52" y="390" fill="#5eead4" font-size="9" font-family="system-ui,sans-serif" font-style="italic"> come from?"</text>

  <!-- PILLAR 2: OBSERVABILITY (amber) -->
  <rect x="240" y="192" width="190" height="200" rx="8" fill="#13151a"/>
  <rect x="240" y="192" width="190" height="4" rx="2" fill="#f59e0b"/>
  <!-- Eye icon -->
  <ellipse cx="276" cy="216" rx="12" ry="7" fill="none" stroke="#f59e0b" stroke-width="1.5"/>
  <circle cx="276" cy="216" r="3" fill="#f59e0b"/>
  <text x="296" y="220" fill="#f59e0b" font-size="12" font-weight="bold" font-family="system-ui,sans-serif">OBSERVABILITY</text>
  <line x1="254" y1="232" x2="416" y2="232" stroke="rgba(245,158,11,0.15)" stroke-width="1"/>
  <text x="254" y="250" fill="#b0aea6" font-size="10" font-family="system-ui,sans-serif">Every query logged:</text>
  <text x="254" y="264" fill="#b0aea6" font-size="10" font-family="system-ui,sans-serif">who, when, what it cost</text>
  <circle cx="258" cy="284" r="2" fill="#f59e0b" fill-opacity="0.6"/>
  <text x="266" y="288" fill="#8a887f" font-size="10" font-family="system-ui,sans-serif">Full audit trail</text>
  <circle cx="258" cy="304" r="2" fill="#f59e0b" fill-opacity="0.6"/>
  <text x="266" y="308" fill="#8a887f" font-size="10" font-family="system-ui,sans-serif">Cost attribution per UC</text>
  <circle cx="258" cy="324" r="2" fill="#f59e0b" fill-opacity="0.6"/>
  <text x="266" y="328" fill="#8a887f" font-size="10" font-family="system-ui,sans-serif">Freshness monitoring</text>
  <circle cx="258" cy="344" r="2" fill="#f59e0b" fill-opacity="0.6"/>
  <text x="266" y="348" fill="#8a887f" font-size="10" font-family="system-ui,sans-serif">Cost per agent</text>
  <text x="254" y="378" fill="#fcd34d" font-size="9" font-family="system-ui,sans-serif" font-style="italic">"Who asked what, how often,</text>
  <text x="254" y="390" fill="#fcd34d" font-size="9" font-family="system-ui,sans-serif" font-style="italic"> what did it cost?"</text>

  <!-- PILLAR 3: SELF-SERVICE (green) -->
  <rect x="442" y="192" width="190" height="200" rx="8" fill="#13151a"/>
  <rect x="442" y="192" width="190" height="4" rx="2" fill="#4ade80"/>
  <!-- Lightning bolt icon -->
  <path d="M462,208 l6,0 l-2,7 l5,0 l-8,12 l2,-8 l-5,0 Z" fill="#4ade80"/>
  <text x="480" y="220" fill="#4ade80" font-size="12" font-weight="bold" font-family="system-ui,sans-serif">SELF-SERVICE</text>
  <line x1="456" y1="232" x2="618" y2="232" stroke="rgba(74,222,128,0.15)" stroke-width="1"/>
  <text x="456" y="250" fill="#b0aea6" font-size="10" font-family="system-ui,sans-serif">Register a UC with 1 JSON</text>
  <text x="456" y="264" fill="#b0aea6" font-size="10" font-family="system-ui,sans-serif">file -- system does the rest</text>
  <circle cx="460" cy="284" r="2" fill="#4ade80" fill-opacity="0.6"/>
  <text x="468" y="288" fill="#8a887f" font-size="10" font-family="system-ui,sans-serif">Auto Gold derivation</text>
  <circle cx="460" cy="304" r="2" fill="#4ade80" fill-opacity="0.6"/>
  <text x="468" y="308" fill="#8a887f" font-size="10" font-family="system-ui,sans-serif">Auto consolidation</text>
  <circle cx="460" cy="324" r="2" fill="#4ade80" fill-opacity="0.6"/>
  <text x="468" y="328" fill="#8a887f" font-size="10" font-family="system-ui,sans-serif">Introspects Silver schema</text>
  <circle cx="460" cy="344" r="2" fill="#4ade80" fill-opacity="0.6"/>
  <text x="468" y="348" fill="#8a887f" font-size="10" font-family="system-ui,sans-serif">Smart refresh + approval</text>
  <text x="456" y="378" fill="#86efac" font-size="9" font-family="system-ui,sans-serif" font-style="italic">"1 JSON, 12 lines --</text>
  <text x="456" y="390" fill="#86efac" font-size="9" font-family="system-ui,sans-serif" font-style="italic"> system derives the rest"</text>

  <!-- PILLAR 4: FLEXIBILITY (purple) -->
  <rect x="644" y="192" width="190" height="200" rx="8" fill="#13151a"/>
  <rect x="644" y="192" width="190" height="4" rx="2" fill="#8b7cf8"/>
  <!-- Branching path icon -->
  <circle cx="669" cy="210" r="3" fill="none" stroke="#8b7cf8" stroke-width="1.5"/>
  <line x1="669" y1="213" x2="669" y2="219" stroke="#8b7cf8" stroke-width="1.5"/>
  <circle cx="660" cy="224" r="3" fill="none" stroke="#8b7cf8" stroke-width="1.5"/>
  <circle cx="678" cy="224" r="3" fill="none" stroke="#8b7cf8" stroke-width="1.5"/>
  <line x1="667" y1="219" x2="660" y2="221" stroke="#8b7cf8" stroke-width="1.5"/>
  <line x1="671" y1="219" x2="678" y2="221" stroke="#8b7cf8" stroke-width="1.5"/>
  <text x="690" y="220" fill="#8b7cf8" font-size="12" font-weight="bold" font-family="system-ui,sans-serif">FLEXIBILITY</text>
  <line x1="658" y1="232" x2="820" y2="232" stroke="rgba(139,124,248,0.15)" stroke-width="1"/>
  <text x="658" y="250" fill="#b0aea6" font-size="10" font-family="system-ui,sans-serif">Unknown questions get</text>
  <text x="658" y="264" fill="#b0aea6" font-size="10" font-family="system-ui,sans-serif">answers, not 404s</text>
  <circle cx="662" cy="284" r="2" fill="#8b7cf8" fill-opacity="0.6"/>
  <text x="670" y="288" fill="#8a887f" font-size="10" font-family="system-ui,sans-serif">T0: instant from Gold</text>
  <circle cx="662" cy="304" r="2" fill="#8b7cf8" fill-opacity="0.6"/>
  <text x="670" y="308" fill="#8a887f" font-size="10" font-family="system-ui,sans-serif">T2: composed from Silver</text>
  <circle cx="662" cy="324" r="2" fill="#8b7cf8" fill-opacity="0.6"/>
  <text x="670" y="328" fill="#8a887f" font-size="10" font-family="system-ui,sans-serif">T3: suggests available UCs</text>
  <circle cx="662" cy="344" r="2" fill="#8b7cf8" fill-opacity="0.6"/>
  <text x="670" y="348" fill="#8a887f" font-size="10" font-family="system-ui,sans-serif">Auto UC discovery</text>
  <text x="658" y="378" fill="#c4b5fd" font-size="9" font-family="system-ui,sans-serif" font-style="italic">"Schema changes don't</text>
  <text x="658" y="390" fill="#c4b5fd" font-size="9" font-family="system-ui,sans-serif" font-style="italic"> break agents"</text>

  <!-- PILLAR 5: SECURITY (coral) -->
  <rect x="846" y="192" width="190" height="200" rx="8" fill="#13151a"/>
  <rect x="846" y="192" width="190" height="4" rx="2" fill="#f87171"/>
  <!-- Shield icon -->
  <path d="M879,207 l-10,4 v10 c0,7 4,13 10,16 c6,-3 10,-9 10,-16 v-10 Z" fill="none" stroke="#f87171" stroke-width="1.5" stroke-linejoin="round"/>
  <text x="896" y="220" fill="#f87171" font-size="12" font-weight="bold" font-family="system-ui,sans-serif">SECURITY</text>
  <line x1="860" y1="232" x2="1022" y2="232" stroke="rgba(248,113,113,0.15)" stroke-width="1"/>
  <text x="860" y="250" fill="#b0aea6" font-size="10" font-family="system-ui,sans-serif">Control who can access</text>
  <text x="860" y="264" fill="#b0aea6" font-size="10" font-family="system-ui,sans-serif">which data and UCs</text>
  <circle cx="864" cy="284" r="2" fill="#f87171" fill-opacity="0.6"/>
  <text x="872" y="288" fill="#8a887f" font-size="10" font-family="system-ui,sans-serif">Agent identity &amp; scoping</text>
  <circle cx="864" cy="304" r="2" fill="#f87171" fill-opacity="0.6"/>
  <text x="872" y="308" fill="#8a887f" font-size="10" font-family="system-ui,sans-serif">Per-UC access control</text>
  <circle cx="864" cy="324" r="2" fill="#f87171" fill-opacity="0.6"/>
  <text x="872" y="328" fill="#8a887f" font-size="10" font-family="system-ui,sans-serif">Row-level data isolation</text>
  <circle cx="864" cy="344" r="2" fill="#f87171" fill-opacity="0.6"/>
  <text x="872" y="348" fill="#8a887f" font-size="10" font-family="system-ui,sans-serif">Role-based UC mgmt</text>
  <text x="860" y="378" fill="#fca5a5" font-size="9" font-family="system-ui,sans-serif" font-style="italic">"Who can see what?"</text>

  <!-- ===== ROUTING FLOW (inside the band, below pillars) ===== -->
  <line x1="38" y1="410" x2="1022" y2="410" stroke="rgba(139,124,248,0.15)" stroke-width="1"/>

  <!-- Flow: Question in -> UC Match? -> T0/T2/T3 -> Response out -->
  <!-- "Question in" label -->
  <rect x="44" y="440" width="90" height="30" rx="6" fill="rgba(96,165,250,0.15)" stroke="#60a5fa" stroke-width="1" stroke-opacity="0.5"/>
  <text x="89" y="459" text-anchor="middle" fill="#93c5fd" font-size="10.5" font-weight="bold" font-family="system-ui,sans-serif">Question in</text>

  <!-- Arrow from Question in to UC Match? -->
  <line x1="136" y1="455" x2="170" y2="455" stroke="rgba(255,255,255,0.4)" stroke-width="1.2" marker-end="url(#arrow)"/>

  <!-- UC Match? diamond -->
  <polygon points="218,437 258,455 218,473 178,455" fill="rgba(139,124,248,0.12)" stroke="#8b7cf8" stroke-width="1.2"/>
  <text x="218" y="452" text-anchor="middle" fill="#c4b5fd" font-size="9" font-weight="bold" font-family="system-ui,sans-serif">UC</text>
  <text x="218" y="463" text-anchor="middle" fill="#c4b5fd" font-size="9" font-weight="bold" font-family="system-ui,sans-serif">Match?</text>

  <!-- ===== GREEN PATH: UC Match? → Yes → T0 Gold → Response out ===== -->
  <line x1="258" y1="455" x2="310" y2="455" stroke="#4ade80" stroke-width="1.5" marker-end="url(#arrowGreen)"/>
  <text x="284" y="449" text-anchor="middle" fill="#4ade80" font-size="8.5" font-weight="bold" font-family="system-ui,sans-serif">Yes</text>

  <!-- T0 Gold box -->
  <rect x="312" y="440" width="130" height="30" rx="6" fill="rgba(74,222,128,0.1)" stroke="#4ade80" stroke-width="1.2"/>
  <text x="377" y="453" text-anchor="middle" fill="#4ade80" font-size="10" font-weight="bold" font-family="system-ui,sans-serif">T0: Gold</text>
  <text x="377" y="465" text-anchor="middle" fill="#86efac" font-size="8.5" font-family="system-ui,sans-serif">instant</text>

  <!-- T0 → Response out (green) -->
  <line x1="442" y1="455" x2="800" y2="455" stroke="#4ade80" stroke-width="1.5" marker-end="url(#arrowGreen)"/>

  <!-- ===== AMBER PATH: UC Match? → No → Can Compose? → Yes → T2 Silver → Response out ===== -->
  <!-- UC Match? down to Can compose? -->
  <line x1="218" y1="473" x2="218" y2="495" stroke="#f59e0b" stroke-width="1.5"/>
  <text x="230" y="488" fill="#f59e0b" font-size="8.5" font-weight="bold" font-family="system-ui,sans-serif">No</text>

  <!-- Can compose? diamond -->
  <polygon points="300,495 348,511 300,527 252,511" fill="rgba(245,158,11,0.1)" stroke="#f59e0b" stroke-width="1.2"/>
  <text x="300" y="508" text-anchor="middle" fill="#fcd34d" font-size="8.5" font-weight="bold" font-family="system-ui,sans-serif">Can</text>
  <text x="300" y="519" text-anchor="middle" fill="#fcd34d" font-size="8.5" font-weight="bold" font-family="system-ui,sans-serif">compose?</text>

  <!-- Can compose? → Yes → T2 -->
  <line x1="348" y1="511" x2="400" y2="511" stroke="#f59e0b" stroke-width="1.5" marker-end="url(#arrowAmber)"/>
  <text x="374" y="505" text-anchor="middle" fill="#f59e0b" font-size="8.5" font-weight="bold" font-family="system-ui,sans-serif">Yes</text>

  <!-- T2 Silver box -->
  <rect x="402" y="496" width="130" height="30" rx="6" fill="rgba(245,158,11,0.1)" stroke="#f59e0b" stroke-width="1.2"/>
  <text x="467" y="509" text-anchor="middle" fill="#f59e0b" font-size="10" font-weight="bold" font-family="system-ui,sans-serif">T2: Silver</text>
  <text x="467" y="521" text-anchor="middle" fill="#fcd34d" font-size="8.5" font-family="system-ui,sans-serif">composed</text>

  <!-- T2 → up → Response out (amber) -->
  <line x1="532" y1="511" x2="570" y2="511" stroke="#f59e0b" stroke-width="1.5"/>
  <line x1="570" y1="511" x2="570" y2="455" stroke="#f59e0b" stroke-width="1.5"/>
  <line x1="570" y1="455" x2="800" y2="455" stroke="#f59e0b" stroke-width="1.5" marker-end="url(#arrowAmber)"/>

  <!-- ===== CORAL PATH: Can Compose? → No → T3 Explain → Response out ===== -->
  <!-- Can compose? down to T3 -->
  <line x1="300" y1="527" x2="300" y2="555" stroke="#f87171" stroke-width="1.5"/>
  <text x="312" y="545" fill="#f87171" font-size="8.5" font-weight="bold" font-family="system-ui,sans-serif">No</text>

  <!-- T3 Explain box -->
  <rect x="350" y="543" width="130" height="30" rx="6" fill="rgba(248,113,113,0.1)" stroke="#f87171" stroke-width="1.2"/>
  <text x="415" y="556" text-anchor="middle" fill="#f87171" font-size="10" font-weight="bold" font-family="system-ui,sans-serif">T3: Can't answer</text>
  <text x="415" y="568" text-anchor="middle" fill="#fca5a5" font-size="8.5" font-family="system-ui,sans-serif">suggests available UCs</text>

  <!-- Connector: Can compose? down to T3 box (horizontal) -->
  <line x1="300" y1="555" x2="350" y2="558" stroke="#f87171" stroke-width="1.5" marker-end="url(#arrowCoral)"/>

  <!-- T3 → up → Response out (coral) -->
  <line x1="480" y1="558" x2="620" y2="558" stroke="#f87171" stroke-width="1.5"/>
  <line x1="620" y1="558" x2="620" y2="455" stroke="#f87171" stroke-width="1.5"/>
  <line x1="620" y1="455" x2="800" y2="455" stroke="#f87171" stroke-width="1.5" marker-end="url(#arrowCoral)"/>

  <!-- Response out box -->
  <rect x="804" y="432" width="216" height="46" rx="6" fill="rgba(139,124,248,0.12)" stroke="#8b7cf8" stroke-width="1.2" stroke-opacity="0.5"/>
  <text x="912" y="451" text-anchor="middle" fill="#c4b5fd" font-size="10.5" font-weight="bold" font-family="system-ui,sans-serif">Response out</text>
  <text x="912" y="466" text-anchor="middle" fill="#9ca3af" font-size="8.5" font-family="system-ui,sans-serif">+ lineage + freshness + audit + access</text>

  <!-- ===== BOTTOM: DATA PLATFORM — TWO MODES ===== -->

  <!-- Arrow from CogniMesh to Data -->
  <line x1="530" y1="598" x2="530" y2="626" stroke="rgba(255,255,255,0.3)" stroke-width="1.2" marker-end="url(#arrow)"/>

  <!-- ===== MODE 1: CONNECT (left side) ===== -->
  <rect x="38" y="636" width="470" height="310" rx="10" fill="rgba(45,212,191,0.04)" stroke="#2dd4bf" stroke-width="1.2" stroke-opacity="0.3" stroke-dasharray="6,3"/>
  <text x="273" y="660" text-anchor="middle" fill="#2dd4bf" font-size="13" font-weight="bold" font-family="system-ui,sans-serif" letter-spacing="0.5">MODE 1: CONNECT</text>
  <text x="273" y="676" text-anchor="middle" fill="#5eead4" font-size="10" font-family="system-ui,sans-serif">Connect to existing data platform</text>

  <!-- Mode 1: Gold bar (managed by CogniMesh) -->
  <rect x="58" y="692" width="430" height="40" rx="6" fill="rgba(74,222,128,0.08)" stroke="#4ade80" stroke-width="1.2" stroke-opacity="0.5"/>
  <text x="78" y="716" fill="#4ade80" font-size="12" font-weight="bold" font-family="system-ui,sans-serif">GOLD</text>
  <text x="130" y="716" fill="#86efac" font-size="10" font-family="system-ui,sans-serif" font-style="italic">Managed by CogniMesh</text>

  <!-- Mode 1: Arrow from CogniMesh reads Silver -->
  <line x1="273" y1="598" x2="273" y2="692" stroke="#2dd4bf" stroke-width="1.2" stroke-dasharray="4,3" marker-end="url(#arrowTeal)"/>
  <text x="283" y="618" fill="#2dd4bf" font-size="8.5" font-family="system-ui,sans-serif" font-style="italic">reads schema</text>
  <text x="283" y="629" fill="#2dd4bf" font-size="8.5" font-family="system-ui,sans-serif" font-style="italic">+ data</text>

  <!-- Mode 1: Silver bar (external) -->
  <rect x="58" y="746" width="430" height="40" rx="6" fill="rgba(45,212,191,0.06)" stroke="#2dd4bf" stroke-width="1" stroke-opacity="0.3"/>
  <text x="78" y="770" fill="#2dd4bf" font-size="12" font-weight="bold" font-family="system-ui,sans-serif">SILVER</text>
  <text x="370" y="770" text-anchor="end" fill="#7a7870" font-size="9" font-family="system-ui,sans-serif" font-style="italic">Managed externally</text>

  <!-- Mode 1: Bronze bar (external) -->
  <rect x="58" y="798" width="430" height="36" rx="6" fill="rgba(248,113,113,0.04)" stroke="#f87171" stroke-width="1" stroke-opacity="0.2"/>
  <text x="78" y="820" fill="#f87171" font-size="12" font-weight="bold" font-family="system-ui,sans-serif">BRONZE</text>
  <text x="370" y="820" text-anchor="end" fill="#7a7870" font-size="9" font-family="system-ui,sans-serif" font-style="italic">Managed externally</text>

  <!-- Mode 1: External tools annotation -->
  <text x="410" y="856" text-anchor="end" fill="#7a7870" font-size="9" font-family="system-ui,sans-serif">(dbt / Spark / Airflow)</text>

  <!-- Mode 1: Bracket for external layers -->
  <line x1="496" y1="746" x2="502" y2="746" stroke="#7a7870" stroke-width="1"/>
  <line x1="502" y1="746" x2="502" y2="834" stroke="#7a7870" stroke-width="1"/>
  <line x1="496" y1="834" x2="502" y2="834" stroke="#7a7870" stroke-width="1"/>

  <!-- Mode 1: Partial lineage note -->
  <text x="273" y="916" text-anchor="middle" fill="#5eead4" font-size="9" font-family="system-ui,sans-serif" font-style="italic">Partial lineage (Gold → Silver)</text>

  <!-- ===== MODE 2: MANAGE (right side) ===== -->
  <rect x="552" y="636" width="470" height="310" rx="10" fill="rgba(139,124,248,0.04)" stroke="#8b7cf8" stroke-width="1.2" stroke-opacity="0.3"/>
  <text x="787" y="660" text-anchor="middle" fill="#8b7cf8" font-size="13" font-weight="bold" font-family="system-ui,sans-serif" letter-spacing="0.5">MODE 2: MANAGE</text>
  <text x="787" y="676" text-anchor="middle" fill="#c4b5fd" font-size="10" font-family="system-ui,sans-serif">Full platform with SQLMesh</text>

  <!-- Mode 2: Gold bar -->
  <rect x="572" y="692" width="430" height="40" rx="6" fill="rgba(74,222,128,0.08)" stroke="#4ade80" stroke-width="1.2" stroke-opacity="0.5"/>
  <text x="592" y="716" fill="#4ade80" font-size="12" font-weight="bold" font-family="system-ui,sans-serif">GOLD</text>

  <!-- Mode 2: Silver bar -->
  <rect x="572" y="746" width="430" height="40" rx="6" fill="rgba(45,212,191,0.08)" stroke="#2dd4bf" stroke-width="1.2" stroke-opacity="0.4"/>
  <text x="592" y="770" fill="#2dd4bf" font-size="12" font-weight="bold" font-family="system-ui,sans-serif">SILVER</text>

  <!-- Mode 2: Bronze bar -->
  <rect x="572" y="798" width="430" height="36" rx="6" fill="rgba(248,113,113,0.06)" stroke="#f87171" stroke-width="1" stroke-opacity="0.3"/>
  <text x="592" y="820" fill="#f87171" font-size="12" font-weight="bold" font-family="system-ui,sans-serif">BRONZE</text>

  <!-- Mode 2: Bracket for all managed layers -->
  <line x1="1010" y1="692" x2="1016" y2="692" stroke="#8b7cf8" stroke-width="1.2"/>
  <line x1="1016" y1="692" x2="1016" y2="834" stroke="#8b7cf8" stroke-width="1.2"/>
  <line x1="1010" y1="834" x2="1016" y2="834" stroke="#8b7cf8" stroke-width="1.2"/>
  <text x="1030" y="754" fill="#c4b5fd" font-size="9" font-family="system-ui,sans-serif" writing-mode="tb" text-anchor="middle">All managed by</text>
  <text x="1044" y="744" fill="#c4b5fd" font-size="9" font-family="system-ui,sans-serif" writing-mode="tb" text-anchor="middle">CogniMesh + SQLMesh</text>

  <!-- Mode 2: Full lineage note -->
  <text x="787" y="916" text-anchor="middle" fill="#c4b5fd" font-size="9" font-family="system-ui,sans-serif" font-style="italic">Full lineage (Bronze → Silver → Gold → Agent)</text>

  <!-- ===== MIGRATION ARROW between modes ===== -->
  <line x1="518" y1="790" x2="542" y2="790" stroke="#f59e0b" stroke-width="2" marker-end="url(#arrowAmber)"/>
  <text x="530" y="780" text-anchor="middle" fill="#f59e0b" font-size="9" font-weight="bold" font-family="system-ui,sans-serif">Incremental</text>
  <text x="530" y="810" text-anchor="middle" fill="#f59e0b" font-size="9" font-weight="bold" font-family="system-ui,sans-serif">migration</text>
  <text x="530" y="870" text-anchor="middle" fill="#fcd34d" font-size="8.5" font-family="system-ui,sans-serif" font-style="italic">Migrate tables one at a time</text>
  <text x="530" y="882" text-anchor="middle" fill="#fcd34d" font-size="8.5" font-family="system-ui,sans-serif" font-style="italic">each gains full lineage</text>

  <!-- Bottom label -->
  <text x="530" y="1020" text-anchor="middle" fill="#6b7280" font-size="10.5" font-family="system-ui,sans-serif">Works with: Postgres, Snowflake, BigQuery, Spark, DuckDB, Delta, Iceberg</text>

</svg>
